<?xml version="1.0" encoding="utf-8"?>
<!-- Generator: Adobe Illustrator 16.0.0, SVG Export Plug-In . SVG Version: 6.00 Build 0)  -->
<!DOCTYPE svg PUBLIC "-//W3C//DTD SVG 1.1//EN" "http://www.w3.org/Graphics/SVG/1.1/DTD/svg11.dtd">
<svg version="1.1" id="Layer_1" xmlns="http://www.w3.org/2000/svg" xmlns:xlink="http://www.w3.org/1999/xlink" x="0px" y="0px"
	 width="400px" height="400px" viewBox="0 0 400 400" enable-background="new 0 0 400 400" xml:space="preserve">
<path fill="#DB99C3" d="M199.641,19.517c-99.387,0-180,80.59-180,180s80.613,180,180,180c99.422,0,180-80.59,180-180
	S299.062,19.517,199.641,19.517z M199.641,353.724c-85.008,0-154.172-69.188-154.172-154.207
	c0-85.025,69.164-154.207,154.172-154.207c85.031,0,154.195,69.182,154.195,154.207
	C353.836,284.536,284.672,353.724,199.641,353.724z"/>
<path fill="#DB99C3" d="M199.641,67.517c-72.797,0-132,59.209-132,132c0,72.785,59.203,132,132,132s132-59.215,132-132
	C331.641,126.726,272.438,67.517,199.641,67.517z M155.449,269.185c-14.062,0-25.488-11.414-25.488-25.477
	s11.426-25.477,25.488-25.477s25.465,11.414,25.465,25.477S169.512,269.185,155.449,269.185z M155.449,184.206
	c-14.062,0-25.488-11.42-25.488-25.488c0-14.062,11.426-25.459,25.488-25.459s25.465,11.396,25.465,25.459
	C180.914,172.786,169.512,184.206,155.449,184.206z M240.445,269.185c-14.086,0-25.477-11.414-25.477-25.477
	s11.391-25.477,25.477-25.477c14.062,0,25.465,11.414,25.465,25.477S254.508,269.185,240.445,269.185z M240.445,184.206
	c-14.086,0-25.477-11.42-25.477-25.488c0-14.062,11.391-25.459,25.477-25.459c14.062,0,25.465,11.396,25.465,25.459
	C265.91,172.786,254.508,184.206,240.445,184.206z"/>
</svg>
