<?xml version="1.0" encoding="utf-8"?>
<!-- Generator: Adobe Illustrator 16.0.0, SVG Export Plug-In . SVG Version: 6.00 Build 0)  -->
<!DOCTYPE svg PUBLIC "-//W3C//DTD SVG 1.1//EN" "http://www.w3.org/Graphics/SVG/1.1/DTD/svg11.dtd">
<svg version="1.1" id="Layer_1" xmlns="http://www.w3.org/2000/svg" xmlns:xlink="http://www.w3.org/1999/xlink" x="0px" y="0px"
	 width="500px" height="250px" viewBox="0 0 500 250" enable-background="new 0 0 500 250" xml:space="preserve">
<path fill="#FFFFFF" d="M470.335,208.953c-7.385-11.574-132.964-66.866-163.083-90.404c-17.443-13.638-32.698-46.281-55.105-45.594
	c0-2.963,0.009-5.445,0.037-6.618c0.047-1.524,4.075-5.772,8.525-8.96c7.235-5.44,11.386-13.76,11.386-22.804
	c0-15.732-12.788-28.525-28.511-28.525l0,0c-9.077,0-17.415,4.169-22.846,11.437c-3.721,4.964-5.683,10.867-5.683,17.088
	c0,1.551,1.262,2.809,2.813,2.809l0,0c1.533,0,2.795-1.257,2.795-2.804c0-4.997,1.58-9.741,4.571-13.723
	c4.365-5.847,11.058-9.194,18.35-9.194l0,0c12.629,0,22.903,10.273,22.903,22.917c0,7.268-3.329,13.947-9.096,18.28
	c-2.496,1.79-10.685,8.035-10.815,13.334c-0.047,1.229-0.056,3.753-0.056,6.763c-22.342-0.556-37.579,31.988-54.994,45.604
	c-30.119,23.529-155.679,78.821-163.083,90.395c-7.395,11.572-2.412,21.462-2.412,21.462c7.965,0.841,14.648-2.889,28.053-11.619
	l-0.019,15.462h-2.692c-2.44,0-4.394,1.962-4.394,4.393s1.954,4.394,4.394,4.394h2.851c0.953,1.384,2.533,2.309,4.337,2.309
	c1.804,0,3.384-0.925,4.318-2.309h372.999c0.953,1.384,2.506,2.309,4.318,2.309c1.823,0,3.403-0.925,4.338-2.309h2.869
	c2.432,0,4.394-1.963,4.394-4.394s-1.962-4.393-4.394-4.393h-2.691l-0.019-15.462c13.404,8.73,20.088,12.46,28.053,11.619
	C472.747,230.415,477.729,220.525,470.335,208.953z M438.665,230.387l-2.291,3.871H62.403l-2.291-3.871v-15.535
	c26.399-17.323,75.709-49.441,187.911-98.537c0.467-0.08,0.925-0.197,1.365-0.309c0.449,0.112,0.897,0.229,1.365,0.309
	c112.221,49.095,161.512,81.205,187.912,98.537V230.387z"/>
</svg>
