<?xml version="1.0" encoding="utf-8"?>
<!-- Generator: Adobe Illustrator 16.0.0, SVG Export Plug-In . SVG Version: 6.00 Build 0)  -->
<!DOCTYPE svg PUBLIC "-//W3C//DTD SVG 1.1//EN" "http://www.w3.org/Graphics/SVG/1.1/DTD/svg11.dtd">
<svg version="1.1" id="Layer_1" xmlns="http://www.w3.org/2000/svg" xmlns:xlink="http://www.w3.org/1999/xlink" x="0px" y="0px"
	 width="600px" height="100px" viewBox="0 0 600 100" enable-background="new 0 0 600 100" xml:space="preserve">
<g>
	<path fill-rule="evenodd" clip-rule="evenodd" fill="#EAEAEA" d="M153.488,51.295c0.665-0.85,1.719-0.918,2.929-0.936
		c1.86-0.023,3.699-0.412,5.46-1.106c0.491-0.193,1.08-0.301,1.594-0.231c0.931,0.125,1.704,0.618,1.897,1.62
		c0.199,1.035-0.1,1.938-1.017,2.555c-0.24,0.163-0.503,0.296-0.729,0.425c-0.116,2.793-1.344,3.584-4.007,2.682
		c-1.284-0.437-2.605-0.752-3.892-1.177c-0.82-0.27-1.609-0.635-2.58-1.025c-0.58,0.842-1.645,0.929-2.782,0.902
		c-1.74-0.039-3.48,0.004-5.221-0.025c-0.979-0.013-1.697-0.485-2.062-1.42c-0.356-0.918-0.221-1.806,0.488-2.461
		c0.403-0.373,1.019-0.697,1.551-0.716c2.077-0.083,4.163-0.107,6.237,0.009C152.04,50.427,152.698,50.946,153.488,51.295z"/>
	<path fill-rule="evenodd" clip-rule="evenodd" fill="#6B6B6B" d="M543.772,45.483c0.666-0.886,1.231-1.667,1.826-2.429
		c0.651-0.843,1.5-1.262,2.571-0.974c1.568,0.421,2.184,2.027,1.271,3.445c-0.776,1.214-1.636,2.381-2.531,3.516
		c-0.58,0.741-0.853,1.507-0.802,2.454c0.05,1.102,0.046,2.213-0.062,3.309c-0.125,1.27-0.999,1.976-2.234,1.986
		c-1.221,0.014-2.102-0.709-2.224-1.984c-0.107-1.096-0.111-2.205-0.057-3.309c0.05-0.947-0.227-1.715-0.807-2.453
		c-0.841-1.067-1.614-2.188-2.402-3.298c-0.888-1.258-0.766-2.424,0.309-3.251c1.077-0.833,2.441-0.639,3.365,0.526
		C542.598,43.779,543.135,44.59,543.772,45.483z"/>
	<path fill-rule="evenodd" clip-rule="evenodd" fill="#EAEAEA" d="M133.448,50.335c1.633,0,3.071-0.002,4.507,0.002
		c0.51,0,1.025-0.023,1.529,0.038c1.166,0.143,2.095,1.251,2.05,2.388c-0.044,1.151-0.9,2.154-2.089,2.191
		c-2.206,0.07-4.443,0.217-6.615-0.062c-1.198-0.153-2.351-1.033-3.402-1.762c-0.388-0.269-0.583-1.034-0.603-1.582
		c-0.072-1.954-0.054-3.911-0.021-5.864c0.026-1.49,1.01-2.438,2.39-2.401c1.332,0.036,2.219,0.958,2.251,2.414
		C133.474,47.179,133.448,48.662,133.448,50.335z"/>
	<path fill-rule="evenodd" clip-rule="evenodd" fill="#EAEAEA" d="M231.616,86.151c1.47,0,2.736-0.028,4,0.008
		c1.253,0.035,2.086,0.72,2.295,1.797c0.285,1.458-0.587,2.7-2.066,2.75c-2.118,0.068-4.241,0.051-6.361,0
		c-1.088-0.021-1.835-0.834-2.08-1.897c-0.616-2.682-0.385-5.399-0.364-8.1c0.011-1.429,1.012-2.284,2.379-2.256
		c1.305,0.025,2.113,0.838,2.175,2.306c0.056,1.271,0.02,2.546,0.021,3.817C231.616,85.042,231.616,85.504,231.616,86.151z"/>
	<path fill-rule="evenodd" clip-rule="evenodd" fill="#EAEAEA" d="M231.616,11.714c0,0.938,0.011,1.692-0.003,2.445
		c-0.009,0.552,0.002,1.11-0.09,1.653c-0.188,1.112-1.045,1.853-2.089,1.885c-1.087,0.032-2.061-0.727-2.32-1.814
		c-0.049-0.206-0.09-0.42-0.09-0.63c-0.007-1.914-0.048-3.83,0.011-5.742c0.048-1.479,0.849-2.304,2.32-2.351
		c2.124-0.066,4.256-0.066,6.377,0.007c1.418,0.048,2.232,0.974,2.229,2.285c-0.007,1.268-0.865,2.17-2.285,2.247
		C234.407,11.768,233.13,11.714,231.616,11.714z"/>
	<path fill-rule="evenodd" clip-rule="evenodd" fill="#EAEAEA" d="M133.448,11.828c0,1.298,0.027,2.437-0.005,3.576
		c-0.038,1.284-0.801,2.175-1.923,2.334c-1.461,0.206-2.657-0.696-2.702-2.173c-0.062-2.081-0.059-4.168,0-6.249
		c0.036-1.307,0.933-2.105,2.367-2.168c1.357-0.058,2.72-0.018,4.082-0.018c0.679,0,1.36-0.027,2.039,0.023
		c1.384,0.104,2.242,1.004,2.238,2.29c0,1.304-0.981,2.335-2.328,2.378C136.032,11.859,134.841,11.828,133.448,11.828z"/>
	<path fill-rule="evenodd" clip-rule="evenodd" fill="#EAEAEA" d="M231.696,46.601c1.377,0,2.646-0.034,3.914,0.009
		c1.291,0.041,2.193,0.884,2.334,2.087c0.158,1.325-0.587,2.353-1.914,2.528c-0.712,0.093-1.439,0.061-2.161,0.071
		c-0.716,0.011-1.433,0.004-2.14,0.004c-0.201,0.383-0.331,0.694-0.514,0.97c-0.559,0.838-1.372,1.096-2.331,0.938
		c-0.888-0.146-1.599-0.853-1.792-1.762c-0.05-0.247-0.077-0.505-0.079-0.757c-0.005-1.783-0.007-3.568-0.002-5.352
		c0.005-1.106,0.385-1.994,1.491-2.429c1.355-0.532,2.739,0.202,3.008,1.631C231.628,45.16,231.628,45.802,231.696,46.601z"/>
	<path fill-rule="evenodd" clip-rule="evenodd" fill="#EAEAEA" d="M29.808,11.73c0,0.958,0.002,1.713,0,2.471
		c-0.003,0.465,0.027,0.938-0.029,1.396c-0.145,1.217-1.19,2.141-2.326,2.096c-1.201-0.046-2.173-0.938-2.208-2.202
		c-0.057-2.075-0.055-4.155,0.002-6.232c0.034-1.189,0.814-2.03,2.005-2.073c2.157-0.079,4.324-0.081,6.481,0.009
		c1.268,0.052,1.987,0.961,2.007,2.195c0.018,1.212-0.702,2.072-1.95,2.269c-0.458,0.07-0.929,0.062-1.395,0.07
		C31.597,11.737,30.794,11.73,29.808,11.73z"/>
	<path fill-rule="evenodd" clip-rule="evenodd" fill="#EAEAEA" d="M29.808,83.251c0,0.595,0.029,1.192-0.007,1.783
		c-0.048,0.795,0.032,1.461,0.773,1.998c0.688,0.498,0.743,1.311,0.493,2.092c-0.283,0.888-0.937,1.432-1.841,1.561
		c-0.667,0.094-1.364,0.083-2.034,0.008c-1.114-0.129-1.95-1.067-1.958-2.17c-0.02-2.586-0.031-5.171-0.004-7.753
		c0.013-1.367,0.797-2.205,2.052-2.31c1.372-0.11,2.414,0.734,2.505,2.113c0.059,0.892,0.011,1.783,0.011,2.678
		C29.801,83.251,29.805,83.251,29.808,83.251z"/>
	<path fill-rule="evenodd" clip-rule="evenodd" fill="#EAEAEA" d="M46.077,90.764c0,0.709,0,1.293,0,1.876
		c-0.057,0.021-0.113,0.04-0.172,0.062c-0.104-0.19-0.236-0.369-0.312-0.569c-0.351-0.953-0.698-1.912-1.026-2.872
		c-0.55-1.615,0.172-2.896,1.866-3.194c1.958-0.344,3.924-0.637,5.896-0.898c1.208-0.161,2.154,0.648,2.412,1.944
		c0.242,1.214-0.381,2.385-1.608,2.625c-2.075,0.408-4.179,0.669-6.271,0.988C46.659,90.757,46.451,90.746,46.077,90.764z"/>
	<path fill-rule="evenodd" clip-rule="evenodd" fill="#EAEAEA" d="M146.274,11.825c-1.021,0-2.041,0.04-3.06-0.011
		c-1.065-0.054-2.018-0.925-2.254-1.953c-0.202-0.875,0.26-1.885,1.124-2.367c0.29-0.161,0.638-0.297,0.96-0.303
		c2.165-0.03,4.336-0.111,6.495,0.003c1.697,0.089,2.566,1.912,1.746,3.407c-0.444,0.809-1.134,1.235-2.079,1.23
		c-0.978-0.009-1.955-0.002-2.933-0.002C146.274,11.827,146.274,11.827,146.274,11.825z"/>
	<path fill-rule="evenodd" clip-rule="evenodd" fill="#EAEAEA" d="M256.398,51.293c-0.935,0-1.871,0.032-2.804-0.007
		c-1.552-0.068-2.506-0.981-2.489-2.326c0.015-1.287,1.089-2.329,2.516-2.353c1.871-0.036,3.74-0.009,5.611-0.009
		c0.931-0.002,1.64,0.414,2.129,1.182c0.913,1.425,0.073,3.251-1.651,3.445c-1.09,0.121-2.206,0.021-3.31,0.021
		C256.4,51.261,256.4,51.279,256.398,51.293z"/>
	<path fill-rule="evenodd" clip-rule="evenodd" fill="#EAEAEA" d="M42.412,7.132c0.89,0,1.787-0.072,2.666,0.023
		c0.607,0.066,1.255,0.253,1.765,0.575c0.793,0.501,0.987,1.355,0.808,2.249c-0.175,0.874-0.766,1.4-1.609,1.617
		c-0.365,0.093-0.754,0.124-1.133,0.127c-1.694,0.013-3.391,0.013-5.085,0c-0.336-0.002-0.682-0.036-1.008-0.116
		c-1.029-0.263-1.81-1.246-1.785-2.209c0.023-1.053,0.84-2.066,1.957-2.173c1.131-0.109,2.283-0.025,3.425-0.025
		C42.412,7.175,42.412,7.154,42.412,7.132z"/>
	<path fill-rule="evenodd" clip-rule="evenodd" fill="#EAEAEA" d="M175.93,75.814c1.112-0.004,1.98,0.755,2.183,1.926
		c0.333,1.92,0.659,3.839,0.984,5.758c0.197,1.157-0.51,2.503-1.482,2.833c-1.074,0.365-2.61-0.322-3.02-1.536
		c-0.752-2.217-1.202-4.516-1.08-6.875C173.583,76.605,174.564,75.817,175.93,75.814z"/>
	<path fill-rule="evenodd" clip-rule="evenodd" fill="#EAEAEA" d="M227.023,24.27c0-0.976-0.027-1.95,0.005-2.924
		c0.031-0.9,0.403-1.631,1.232-2.08c1.314-0.711,2.849-0.068,3.223,1.376c0.093,0.364,0.122,0.754,0.125,1.132
		c0.015,1.652,0.007,3.305,0.006,4.958c-0.002,0.252-0.011,0.51-0.045,0.759c-0.185,1.298-1.125,2.19-2.263,2.152
		c-1.129-0.034-2.145-0.96-2.245-2.199c-0.084-1.051-0.016-2.116-0.016-3.174C227.038,24.27,227.029,24.27,227.023,24.27z"/>
	<path fill-rule="evenodd" clip-rule="evenodd" fill="#EAEAEA" d="M174.886,19.081c0.827,0.059,1.525,0.408,1.955,1.182
		c1.141,2.068,1.814,4.304,2.234,6.612c0.199,1.088-0.557,2.081-1.654,2.408c-1.123,0.333-2.326-0.152-2.821-1.159
		c-0.111-0.227-0.17-0.479-0.247-0.721c-0.541-1.697-0.998-3.427-1.638-5.083C172.072,20.657,173.189,19.201,174.886,19.081z"/>
	<path fill-rule="evenodd" clip-rule="evenodd" fill="#EAEAEA" d="M244.498,51.282c-0.972,0-1.95,0.052-2.922-0.011
		c-1.438-0.089-2.333-1.054-2.288-2.365c0.041-1.244,1.071-2.269,2.422-2.297c1.903-0.042,3.812-0.054,5.715,0.003
		c1.842,0.054,2.917,1.797,2.166,3.405c-0.404,0.868-1.14,1.229-2.044,1.261C246.533,51.312,245.514,51.284,244.498,51.282z"/>
	<path fill-rule="evenodd" clip-rule="evenodd" fill="#EAEAEA" d="M256.534,7.14c0.935,0,1.869-0.042,2.802,0.009
		c1.47,0.084,2.379,0.994,2.381,2.301c0.005,1.246-0.976,2.218-2.43,2.259c-1.912,0.055-3.824,0.055-5.736,0
		c-1.511-0.043-2.5-1.063-2.442-2.371c0.054-1.196,0.911-2.036,2.238-2.186c0.084-0.009,0.17-0.016,0.254-0.016
		c0.978,0,1.955,0,2.933,0C256.534,7.138,256.534,7.138,256.534,7.14z"/>
	<path fill-rule="evenodd" clip-rule="evenodd" fill="#EAEAEA" d="M171.069,63.414c-0.723,0.025-1.332-0.215-1.791-0.788
		c-1.049-1.307-2.316-2.363-3.722-3.258c-0.143-0.086-0.281-0.187-0.404-0.305c-0.974-0.906-1.192-2.306-0.509-3.212
		c0.711-0.949,2.088-1.239,3.212-0.591c1.97,1.135,3.685,2.589,5.019,4.437c0.326,0.451,0.542,1.089,0.546,1.64
		C173.433,62.688,172.518,63.432,171.069,63.414z"/>
	<path fill-rule="evenodd" clip-rule="evenodd" fill="#6B6B6B" d="M546.078,75.273c0,1.06,0.072,2.127-0.014,3.18
		c-0.119,1.382-1.053,2.138-2.403,2.084c-1.07-0.043-1.851-0.666-2.037-1.747c-0.114-0.659-0.101-1.351-0.104-2.027
		c-0.01-1.485-0.043-2.972,0.019-4.454c0.061-1.425,0.945-2.271,2.228-2.277c1.26-0.015,2.198,0.767,2.302,2.062
		c0.086,1.053,0.019,2.12,0.019,3.18H546.078z"/>
	<path fill-rule="evenodd" clip-rule="evenodd" fill="#EAEAEA" d="M227.038,59.955c0-1.06-0.072-2.12,0.016-3.173
		c0.125-1.543,1.56-2.462,3.033-1.992c0.949,0.303,1.475,1.012,1.493,1.996c0.032,2.073,0.066,4.15-0.015,6.227
		c-0.052,1.361-0.961,2.174-2.173,2.188c-1.253,0.011-2.232-0.849-2.338-2.195C226.975,61.996,227.04,60.972,227.038,59.955z"/>
	<path fill-rule="evenodd" clip-rule="evenodd" fill="#EAEAEA" d="M231.557,71.797c0,1.099,0.079,2.209-0.021,3.298
		c-0.111,1.192-0.997,1.904-2.148,1.912c-1.142,0.014-2.052-0.698-2.295-1.798c-0.047-0.208-0.074-0.423-0.075-0.63
		c-0.006-1.866-0.011-3.731,0.001-5.594c0.009-0.945,0.33-1.743,1.223-2.213c1.43-0.752,2.997,0.008,3.296,1.598
		c0.023,0.121,0.054,0.25,0.054,0.376c0.003,1.017,0.003,2.03,0.003,3.051C231.582,71.797,231.569,71.797,231.557,71.797z"/>
	<path fill-rule="evenodd" clip-rule="evenodd" fill="#EAEAEA" d="M231.605,36.134c0,0.974,0.043,1.95-0.011,2.922
		c-0.079,1.511-0.953,2.408-2.245,2.403c-1.289-0.007-2.265-0.935-2.311-2.369c-0.064-1.946-0.061-3.898,0-5.844
		c0.043-1.37,0.861-2.191,2.085-2.292c1.302-0.109,2.267,0.577,2.399,1.884c0.111,1.088,0.023,2.197,0.023,3.296
		C231.565,36.134,231.585,36.134,231.605,36.134z"/>
	<path fill-rule="evenodd" clip-rule="evenodd" fill="#EAEAEA" d="M268.368,11.696c-1.063,0-2.132,0.079-3.187-0.018
		c-1.608-0.146-2.524-1.559-2.02-3.004c0.369-1.062,1.207-1.506,2.27-1.529c1.447-0.03,2.893-0.023,4.34-0.012
		c0.677,0.005,1.368-0.005,2.032,0.109c1.069,0.181,1.76,1.089,1.771,2.183c0.011,0.999-0.663,1.912-1.647,2.17
		c-0.365,0.095-0.756,0.12-1.135,0.131c-0.808,0.018-1.615,0.005-2.424,0.005C268.368,11.719,268.368,11.708,268.368,11.696z"/>
	<path fill-rule="evenodd" clip-rule="evenodd" fill="#EAEAEA" d="M244.692,7.143c0.935,0,1.873-0.045,2.808,0.011
		c1.48,0.089,2.358,1.002,2.333,2.334c-0.025,1.232-0.935,2.172-2.334,2.215c-1.996,0.059-4,0.062-5.994-0.016
		c-1.309-0.054-2.197-1.03-2.218-2.201c-0.025-1.264,0.843-2.181,2.218-2.331c0.294-0.032,0.595-0.023,0.892-0.025
		c0.765-0.003,1.531-0.001,2.297-0.001C244.692,7.132,244.692,7.138,244.692,7.143z"/>
	<path fill-rule="evenodd" clip-rule="evenodd" fill="#EAEAEA" d="M175.644,41.276c-1.654,0.009-2.832-1.576-2.252-3.173
		c0.61-1.685,1.088-3.376,1.226-5.174c0.102-1.305,1.278-2.231,2.551-2.156c1.166,0.07,2.254,1.311,2.132,2.589
		c-0.215,2.245-0.693,4.438-1.583,6.526C177.33,40.796,176.659,41.296,175.644,41.276z"/>
	<path fill-rule="evenodd" clip-rule="evenodd" fill="#EAEAEA" d="M168.668,50.776c-1.147-0.005-2.073-0.639-2.424-1.495
		c-0.369-0.909-0.141-1.833,0.585-2.547c1.329-1.305,2.712-2.564,3.941-3.955c0.974-1.104,2.547-1.051,3.298-0.396
		c0.936,0.816,1.162,2.249,0.351,3.33c-1.328,1.769-2.893,3.325-4.685,4.631C169.375,50.606,168.889,50.69,168.668,50.776z"/>
	<path fill-rule="evenodd" clip-rule="evenodd" fill="#6B6B6B" d="M541.517,63.442c0-0.845-0.015-1.689,0.003-2.538
		c0.012-0.38,0.033-0.771,0.126-1.132c0.258-0.999,1.146-1.693,2.12-1.701c0.974-0.003,1.904,0.666,2.198,1.619
		c0.086,0.279,0.144,0.583,0.144,0.873c0.01,1.909,0.043,3.817-0.008,5.723c-0.043,1.41-0.799,2.184-2.055,2.291
		c-1.43,0.115-2.393-0.647-2.492-2.084c-0.076-1.01-0.015-2.033-0.015-3.051C541.531,63.442,541.523,63.442,541.517,63.442z"/>
	<path fill-rule="evenodd" clip-rule="evenodd" fill="#EAEAEA" d="M55.815,85.679c-0.018-0.988,0.403-1.689,1.311-2.13
		c1.717-0.835,3.416-1.701,5.129-2.546c1.302-0.638,2.619-0.319,3.231,0.77s0.294,2.557-0.902,3.216
		c-1.893,1.038-3.835,2.001-5.82,2.847C57.294,88.465,55.831,87.309,55.815,85.679z"/>
	<path fill-rule="evenodd" clip-rule="evenodd" fill="#EAEAEA" d="M62.849,12.084c0.179,0.07,0.695,0.177,1.103,0.444
		c1.566,1.021,3.124,2.059,4.637,3.155c1.18,0.855,1.417,2.206,0.666,3.237c-0.777,1.071-2.234,1.296-3.41,0.524
		c-1.527-1-3.053-2.001-4.578-3.004c-1.057-0.697-1.486-1.69-1.18-2.707C60.411,12.665,61.302,12.06,62.849,12.084z"/>
	<path fill-rule="evenodd" clip-rule="evenodd" fill="#EAEAEA" d="M128.797,36.469c0-0.978-0.032-1.954,0.006-2.927
		c0.059-1.429,0.974-2.301,2.345-2.293c1.357,0.005,2.265,0.89,2.29,2.342c0.038,1.993,0.042,3.987-0.001,5.979
		c-0.031,1.395-1.053,2.371-2.334,2.349c-1.273-0.021-2.224-1.01-2.305-2.397c-0.005-0.084-0.005-0.17-0.005-0.254
		c0-0.935,0-1.866,0-2.798C128.793,36.469,128.795,36.469,128.797,36.469z"/>
	<path fill-rule="evenodd" clip-rule="evenodd" fill="#EAEAEA" d="M133.448,84.791c0,0.974,0.027,1.948-0.005,2.922
		c-0.049,1.39-1.012,2.432-2.262,2.435c-1.332,0.008-2.422-1.152-2.397-2.449c0.038-1.947-0.016-3.896,0.02-5.844
		c0.029-1.507,0.961-2.392,2.388-2.363c1.366,0.029,2.206,0.896,2.251,2.378C133.474,82.843,133.448,83.817,133.448,84.791z"/>
	<path fill-rule="evenodd" clip-rule="evenodd" fill="#EAEAEA" d="M133.448,60.771c0,0.931,0.023,1.862-0.005,2.797
		c-0.043,1.45-0.93,2.388-2.244,2.417c-1.384,0.035-2.365-0.902-2.396-2.393c-0.038-1.947,0.011-3.902-0.016-5.851
		c-0.021-1.654,1.261-2.434,2.387-2.424c1.335,0.011,2.224,0.945,2.269,2.396C133.474,58.73,133.448,59.751,133.448,60.771z"/>
	<path fill-rule="evenodd" clip-rule="evenodd" fill="#EAEAEA" d="M156.696,7.055c1.701,0.336,3.411,0.626,5.097,1.026
		c1.421,0.335,2.052,1.355,1.758,2.619c-0.301,1.295-1.413,1.995-2.797,1.807c-1.801-0.245-3.604-0.476-5.41-0.673
		c-1.311-0.142-2.362-1.178-2.353-2.397c0.007-1.271,0.995-2.224,2.404-2.29c0.422-0.02,0.847,0.034,1.271,0.056
		C156.677,7.154,156.688,7.104,156.696,7.055z"/>
	<path fill-rule="evenodd" clip-rule="evenodd" fill="#EAEAEA" d="M164.54,12.747c0.087-1.876,1.593-2.92,3.197-2.158
		c2.249,1.071,4.12,2.677,5.645,4.641c0.75,0.963,0.451,2.29-0.469,3.078c-0.792,0.673-2.396,0.653-3.103-0.213
		c-1.128-1.388-2.533-2.496-4.107-3.364C164.869,14.271,164.477,13.597,164.54,12.747z"/>
	<path fill-rule="evenodd" clip-rule="evenodd" fill="#EAEAEA" d="M178.038,72.008c-0.004,1.246-1.024,2.327-2.301,2.399
		c-1.296,0.078-2.301-0.724-2.392-2.092c-0.124-1.84-0.562-3.588-1.164-5.317c-0.428-1.235,0.17-2.538,1.271-2.957
		c1.074-0.408,2.444,0.071,2.906,1.178C177.266,67.374,177.776,69.648,178.038,72.008z"/>
	<path fill-rule="evenodd" clip-rule="evenodd" fill="#EAEAEA" d="M128.797,24.415c0-0.976-0.032-1.95,0.007-2.922
		c0.061-1.454,0.938-2.281,2.344-2.272c1.395,0.007,2.263,0.84,2.29,2.317c0.042,1.991,0.043,3.983-0.001,5.973
		c-0.032,1.418-1.012,2.34-2.334,2.32c-1.321-0.02-2.245-0.945-2.299-2.365C128.765,26.448,128.795,25.432,128.797,24.415z"/>
	<path fill-rule="evenodd" clip-rule="evenodd" fill="#EAEAEA" d="M133.448,72.767c0,0.938,0.023,1.869-0.003,2.808
		c-0.044,1.508-0.979,2.442-2.343,2.471c-1.21,0.025-2.365-1.139-2.322-2.518c0.061-1.908-0.013-3.827,0.023-5.739
		c0.03-1.493,0.881-2.328,2.281-2.346c1.473-0.018,2.317,0.82,2.361,2.392C133.472,70.812,133.45,71.789,133.448,72.767z"/>
	<path fill-rule="evenodd" clip-rule="evenodd" fill="#EAEAEA" d="M68.557,81.819c-1.229-0.004-1.985-0.401-2.42-1.297
		c-0.43-0.881-0.247-1.826,0.505-2.563c1.423-1.396,2.854-2.793,4.31-4.161c0.89-0.838,2.274-0.841,3.151-0.071
		c0.865,0.756,1.033,2.155,0.303,3.126c-1.37,1.815-3.099,3.27-4.902,4.623C69.187,81.719,68.727,81.762,68.557,81.819z"/>
	<path fill-rule="evenodd" clip-rule="evenodd" fill="#6B6B6B" d="M551.12,41.781c-1.755,0.021-2.965-1.848-2.084-3.321
		c1.092-1.813,2.327-3.55,3.603-5.242c0.773-1.024,2.345-1.074,3.322-0.277c1.018,0.823,1.214,2.073,0.423,3.162
		c-1.196,1.647-2.442,3.262-3.674,4.884C552.302,41.527,551.743,41.797,551.12,41.781z"/>
	<path fill-rule="evenodd" clip-rule="evenodd" fill="#EAEAEA" d="M84.908,54.494c-0.551,2.181-1.037,4.38-1.679,6.531
		c-0.333,1.121-1.665,1.658-2.714,1.314c-0.953-0.315-1.789-1.719-1.579-2.808c0.378-1.955,0.786-3.91,1.243-5.851
		c0.269-1.135,1.405-1.854,2.519-1.708C83.958,52.142,84.806,53.162,84.908,54.494z"/>
	<path fill-rule="evenodd" clip-rule="evenodd" fill="#EAEAEA" d="M73.967,70.386c0.075-0.183,0.228-0.662,0.469-1.096
		c0.87-1.554,1.772-3.09,2.659-4.63c0.693-1.203,1.871-1.654,2.997-1.139c1.128,0.516,1.676,1.891,1.067,3.137
		c-0.894,1.826-1.876,3.609-2.911,5.356c-0.569,0.967-1.901,1.304-2.931,0.924C74.454,72.624,73.937,71.775,73.967,70.386z"/>
	<path fill-rule="evenodd" clip-rule="evenodd" fill="#EAEAEA" d="M85.003,46.646c0,0.636,0.023,1.273-0.005,1.909
		c-0.046,1.056-0.761,1.908-1.715,2.091c-1.106,0.209-2.077-0.243-2.535-1.231c-0.158-0.338-0.267-0.724-0.301-1.096
		c-0.168-1.855-0.321-3.713-0.448-5.575c-0.097-1.38,0.668-2.387,1.907-2.578c1.312-0.201,2.293,0.365,2.549,1.688
		c0.305,1.576,0.437,3.184,0.645,4.779C85.067,46.635,85.035,46.64,85.003,46.646z"/>
	<path fill-rule="evenodd" clip-rule="evenodd" fill="#EAEAEA" d="M56.578,14.163c-0.081-0.018-0.371-0.07-0.652-0.152
		c-1.584-0.464-3.158-0.965-4.751-1.389c-0.918-0.247-1.633-0.682-2.012-1.581c-0.657-1.561,0.388-3.169,2.071-3.024
		c2.381,0.206,4.673,0.857,6.835,1.876c0.994,0.467,1.389,1.534,1.114,2.587C58.901,13.553,58.006,14.185,56.578,14.163z"/>
	<path fill-rule="evenodd" clip-rule="evenodd" fill="#6B6B6B" d="M526.27,22.746c0.419,0.22,1.074,0.367,1.404,0.779
		c1.339,1.69,2.635,3.425,3.838,5.215c0.724,1.078,0.322,2.385-0.766,3.101c-1.05,0.693-2.199,0.498-3.016-0.562
		c-1.188-1.545-2.377-3.086-3.513-4.673c-0.945-1.327-0.447-2.952,1.031-3.575C525.515,22.918,525.812,22.873,526.27,22.746z"/>
	<path fill-rule="evenodd" clip-rule="evenodd" fill="#EAEAEA" d="M83.195,36.419c-0.005,1.291-0.723,2.245-1.74,2.428
		c-1.384,0.249-2.394-0.444-2.729-1.318c-0.686-1.774-1.49-3.502-2.24-5.251c-0.541-1.26-0.075-2.483,1.164-3.074
		c1.282-0.608,2.346-0.301,2.963,0.985c0.825,1.715,1.572,3.466,2.324,5.213C83.1,35.782,83.146,36.215,83.195,36.419z"/>
	<path fill-rule="evenodd" clip-rule="evenodd" fill="#EAEAEA" d="M77.94,25.933c-0.12,1.053-0.675,1.987-1.523,2.271
		c-0.951,0.317-1.864,0.193-2.592-0.537c-0.417-0.419-0.741-0.928-1.112-1.391c-0.899-1.128-1.821-2.24-2.696-3.386
		c-0.806-1.053-0.693-2.213,0.236-3.083c0.831-0.777,1.948-0.849,2.857,0.056c1.47,1.462,2.843,3.025,4.195,4.598
		C77.638,24.846,77.734,25.437,77.94,25.933z"/>
	<path fill-rule="evenodd" clip-rule="evenodd" fill="#EAEAEA" d="M25.221,24.28c0-0.976-0.027-1.95,0.007-2.924
		c0.048-1.43,0.965-2.359,2.281-2.367c1.284-0.009,2.256,0.956,2.286,2.374c0.04,1.948,0.04,3.899-0.003,5.847
		c-0.029,1.363-1.099,2.44-2.288,2.426c-1.241-0.016-2.226-1.044-2.275-2.433C25.194,26.232,25.221,25.254,25.221,24.28z"/>
	<path fill-rule="evenodd" clip-rule="evenodd" fill="#EAEAEA" d="M37.604,90.728c-0.931,0-1.866,0.029-2.798-0.003
		c-1.433-0.054-2.344-0.978-2.33-2.32c0.011-1.243,0.937-2.202,2.295-2.238c1.993-0.05,3.987-0.047,5.978,0
		c1.289,0.028,2.292,1.078,2.288,2.267c-0.005,1.293-0.979,2.252-2.379,2.292C39.641,90.753,38.622,90.728,37.604,90.728z"/>
	<path fill-rule="evenodd" clip-rule="evenodd" fill="#EAEAEA" d="M25.221,59.919c0-0.974-0.023-1.955,0.005-2.925
		c0.045-1.46,0.918-2.309,2.315-2.299c1.294,0.007,2.22,0.877,2.25,2.241c0.043,1.951,0.041,3.903,0.002,5.854
		c-0.029,1.418-1.001,2.406-2.26,2.41c-1.352,0.003-2.272-0.971-2.308-2.485C25.203,61.785,25.221,60.851,25.221,59.919z"/>
	<path fill-rule="evenodd" clip-rule="evenodd" fill="#6B6B6B" d="M561.482,22.837c1.751,0.023,2.836,1.744,2.095,3.319
		c-0.075,0.152-0.161,0.301-0.258,0.435c-1.12,1.542-2.224,3.099-3.384,4.612c-0.916,1.203-2.184,1.366-3.334,0.512
		c-0.991-0.74-1.185-1.987-0.368-3.169c1.132-1.638,2.327-3.225,3.517-4.825C560.172,23.145,560.752,22.83,561.482,22.837z"/>
	<path fill-rule="evenodd" clip-rule="evenodd" fill="#EAEAEA" d="M29.806,36.218c-0.001,0.933,0.023,1.866-0.009,2.797
		c-0.046,1.405-1.004,2.418-2.249,2.431c-1.339,0.013-2.297-0.976-2.32-2.474c-0.029-1.864-0.029-3.728-0.002-5.591
		c0.023-1.579,0.865-2.446,2.299-2.442c1.391,0.004,2.24,0.915,2.277,2.485C29.824,34.353,29.806,35.288,29.806,36.218z"/>
	<path fill-rule="evenodd" clip-rule="evenodd" fill="#EAEAEA" d="M244.515,90.728c-0.933,0-1.865,0.021-2.794,0
		c-1.45-0.043-2.394-0.924-2.428-2.23c-0.038-1.271,0.937-2.303,2.334-2.331c1.989-0.05,3.983-0.071,5.971,0.007
		c1.746,0.068,2.716,1.737,1.995,3.273c-0.401,0.852-1.104,1.26-2.028,1.278C246.547,90.742,245.532,90.728,244.515,90.728
		L244.515,90.728z"/>
	<path fill-rule="evenodd" clip-rule="evenodd" fill="#EAEAEA" d="M256.384,90.728c-0.937,0-1.873,0.021-2.808,0
		c-1.497-0.043-2.496-1.002-2.471-2.342c0.023-1.231,1.057-2.202,2.471-2.227c1.912-0.036,3.828-0.04,5.74,0
		c1.421,0.032,2.401,1.013,2.394,2.291c-0.009,1.311-0.954,2.231-2.394,2.274C258.339,90.757,257.359,90.728,256.384,90.728z"/>
	<path fill-rule="evenodd" clip-rule="evenodd" fill="#EAEAEA" d="M268.318,90.728c-0.974,0-1.95,0.029-2.922-0.003
		c-1.424-0.047-2.365-0.985-2.363-2.292c0-1.225,0.938-2.228,2.271-2.263c1.989-0.054,3.982-0.054,5.971-0.004
		c1.348,0.032,2.279,1.003,2.297,2.238c0.016,1.313-0.922,2.267-2.331,2.316C270.268,90.757,269.292,90.728,268.318,90.728z"/>
	<path fill-rule="evenodd" clip-rule="evenodd" fill="#6B6B6B" d="M536.432,41.781c-0.673,0.041-1.246-0.306-1.668-0.877
		c-1.215-1.631-2.436-3.258-3.6-4.925c-0.74-1.062-0.565-2.13,0.377-2.947c0.938-0.811,2.227-0.834,3.129-0.036
		c0.223,0.195,0.401,0.437,0.573,0.679c0.991,1.425,1.979,2.854,2.961,4.286c0.169,0.244,0.319,0.501,0.427,0.775
		C539.225,40.293,538.168,41.797,536.432,41.781z"/>
	<path fill-rule="evenodd" clip-rule="evenodd" fill="#EAEAEA" d="M29.806,71.671c0,0.975,0.021,1.948-0.005,2.922
		c-0.038,1.433-0.951,2.399-2.241,2.414c-1.393,0.018-2.313-0.917-2.333-2.436c-0.023-1.861-0.023-3.73,0-5.593
		c0.021-1.547,0.91-2.481,2.29-2.485c1.344,0,2.247,0.975,2.286,2.507C29.824,69.888,29.806,70.776,29.806,71.671z"/>
	<path fill-rule="evenodd" clip-rule="evenodd" fill="#EAEAEA" d="M29.805,48.135c0,0.933,0.03,1.867-0.007,2.798
		c-0.054,1.395-1.037,2.344-2.342,2.312c-1.28-0.032-2.199-0.928-2.224-2.285c-0.036-1.991-0.043-3.985,0.005-5.978
		c0.032-1.37,0.954-2.234,2.256-2.247c1.26-0.014,2.227,0.883,2.295,2.22c0.054,1.058,0.011,2.12,0.011,3.18
		C29.801,48.135,29.803,48.135,29.805,48.135z"/>
	<path fill-rule="evenodd" clip-rule="evenodd" fill="#6B6B6B" d="M519.151,13.327c0.727-0.032,1.371,0.322,1.852,0.986
		c1.142,1.583,2.299,3.156,3.405,4.764c0.737,1.078,0.537,2.29-0.419,3.072c-0.863,0.707-2.234,0.71-2.99-0.219
		c-1.393-1.708-2.746-3.466-3.917-5.328C516.115,15.06,517.254,13.311,519.151,13.327z"/>
	<path fill-rule="evenodd" clip-rule="evenodd" fill="#6B6B6B" d="M568.344,13.327c1.977-0.007,3.129,1.912,2.127,3.417
		c-1.196,1.796-2.543,3.504-3.903,5.181c-0.709,0.872-2.084,0.928-2.886,0.289c-1-0.799-1.304-2.052-0.616-3.045
		c1.188-1.705,2.449-3.361,3.691-5.027C567.19,13.556,567.799,13.291,568.344,13.327z"/>
	<path fill-rule="evenodd" clip-rule="evenodd" fill="#6B6B6B" d="M441.557,6.164c1.117,0.15,2.006,0.861,2.234,1.912
		c0.223,0.99-0.368,2.064-1.364,2.448c-0.312,0.122-0.655,0.172-0.984,0.243c-1.443,0.317-2.894,0.6-4.329,0.949
		c-1.261,0.308-2.316-0.195-2.732-1.379c-0.394-1.117,0.079-2.249,1.311-2.625C437.622,7.116,439.602,6.672,441.557,6.164z"/>
	<path fill-rule="evenodd" clip-rule="evenodd" fill="#EAEAEA" d="M343.514,8.475c0.011,0.886-0.577,1.744-1.447,2.062
		c-0.318,0.116-0.658,0.165-0.991,0.236c-1.45,0.322-2.904,0.621-4.348,0.967c-1.192,0.285-2.237-0.229-2.656-1.364
		c-0.416-1.119,0.043-2.288,1.271-2.65c1.909-0.564,3.856-1.027,5.815-1.373C342.414,6.131,343.499,7.229,343.514,8.475z"/>
	<path fill-rule="evenodd" clip-rule="evenodd" fill="#EAEAEA" d="M348.058,90.725c-0.509,0-1.021,0.032-1.529-0.011
		c-1.199-0.094-2.095-1.021-2.127-2.148c-0.028-1.089,0.896-2.056,2.109-2.152c1.732-0.133,3.473-0.247,5.213-0.348
		c1.257-0.067,2.199,0.67,2.378,1.819c0.187,1.188-0.541,2.26-1.854,2.475c-1.383,0.222-2.786,0.282-4.183,0.419
		C348.064,90.757,348.061,90.742,348.058,90.725z"/>
	<path fill-rule="evenodd" clip-rule="evenodd" fill="#6B6B6B" d="M448.311,90.721c-0.513,0-1.028,0.039-1.533-0.011
		c-1.174-0.114-2.069-1.103-2.048-2.224c0.018-1.049,0.902-1.977,2.052-2.069c1.736-0.137,3.477-0.244,5.217-0.344
		c1.311-0.079,2.299,0.694,2.442,1.887c0.144,1.186-0.619,2.224-1.94,2.421c-1.383,0.204-2.79,0.269-4.187,0.39
		C448.311,90.757,448.311,90.735,448.311,90.721z"/>
	<path fill-rule="evenodd" clip-rule="evenodd" fill="#EAEAEA" d="M325.22,35.742c0.207,0.084,0.637,0.175,0.974,0.405
		c1.461,1.004,2.904,2.041,4.34,3.083c1.446,1.053,1.246,3.129-0.415,3.779c-0.459,0.179-1.125,0.185-1.568-0.013
		c-1.948-0.868-3.663-2.104-5.167-3.622c-0.681-0.689-0.709-1.515-0.391-2.358C323.286,36.233,324.156,35.721,325.22,35.742z"/>
	<path fill-rule="evenodd" clip-rule="evenodd" fill="#6B6B6B" d="M431.824,40.984c-0.007,1.699-1.826,2.666-3.011,2.038
		c-1.845-0.978-3.577-2.099-5.046-3.593c-0.838-0.856-0.848-2.145-0.086-2.981c0.777-0.851,1.991-0.928,2.986-0.209
		c1.368,0.992,2.743,1.966,4.122,2.947C431.438,39.647,431.811,40.288,431.824,40.984z"/>
	<path fill-rule="evenodd" clip-rule="evenodd" fill="#6B6B6B" d="M448.249,5.897c1.508,0.204,3.026,0.353,4.52,0.625
		c1.077,0.197,1.7,1.051,1.697,2.079c-0.004,0.981-0.591,1.797-1.551,2.087c-0.279,0.083-0.587,0.116-0.874,0.091
		c-1.597-0.14-3.193-0.274-4.783-0.469c-0.53-0.066-1.085-0.218-1.536-0.485c-0.813-0.482-1.121-1.366-0.906-2.179
		c0.229-0.879,0.952-1.531,1.897-1.631c0.502-0.054,1.014-0.011,1.522-0.011C448.238,5.97,448.246,5.935,448.249,5.897z"/>
	<path fill-rule="evenodd" clip-rule="evenodd" fill="#EAEAEA" d="M347.896,5.902c1.464,0.193,2.943,0.328,4.394,0.593
		c1.386,0.25,2.062,1.312,1.79,2.582c-0.265,1.233-1.343,1.819-2.703,1.624c-1.379-0.195-2.775-0.236-4.165-0.372
		c-0.497-0.048-1.023-0.093-1.472-0.29c-0.956-0.416-1.457-1.372-1.292-2.245c0.179-0.967,0.984-1.694,2.041-1.787
		c0.458-0.04,0.931-0.007,1.396-0.007C347.886,5.967,347.893,5.935,347.896,5.902z"/>
	<path fill-rule="evenodd" clip-rule="evenodd" fill="#6B6B6B" d="M467.188,12.45c0.272,0.109,0.781,0.234,1.2,0.494
		c1.479,0.911,2.946,1.844,4.383,2.82c1.006,0.686,1.235,1.803,0.666,2.788c-0.599,1.031-1.809,1.48-2.825,0.87
		c-1.712-1.021-3.37-2.132-5.003-3.271c-0.748-0.523-0.92-1.359-0.626-2.152C465.318,13.073,466.1,12.464,467.188,12.45z"/>
	<path fill-rule="evenodd" clip-rule="evenodd" fill="#EAEAEA" d="M341.172,90.398c-2.002-0.526-4.021-0.999-5.998-1.604
		c-0.896-0.275-1.347-1.281-1.221-2.162c0.132-0.917,0.798-1.665,1.722-1.809c0.444-0.068,0.924-0.018,1.372,0.079
		c1.493,0.312,2.968,0.688,4.458,0.999c1.654,0.344,2.499,1.887,1.711,3.229C342.779,89.887,342.106,90.273,341.172,90.398z"/>
	<path fill-rule="evenodd" clip-rule="evenodd" fill="#6B6B6B" d="M441.481,90.398c-2.001-0.53-4.021-1.003-5.997-1.611
		c-0.889-0.275-1.34-1.289-1.203-2.17c0.136-0.909,0.816-1.647,1.732-1.801c0.365-0.062,0.763-0.047,1.125,0.032
		c1.614,0.34,3.223,0.712,4.83,1.081c1.665,0.38,2.396,2.131,1.425,3.427C442.932,89.976,442.306,90.28,441.481,90.398z"/>
	<path fill-rule="evenodd" clip-rule="evenodd" fill="#EAEAEA" d="M366.863,12.45c0.275,0.111,0.78,0.234,1.203,0.494
		c1.476,0.913,2.943,1.846,4.383,2.823c1.003,0.682,1.231,1.805,0.659,2.788c-0.599,1.031-1.805,1.477-2.829,0.865
		c-1.712-1.021-3.366-2.132-4.999-3.271c-0.755-0.528-0.916-1.354-0.623-2.154C364.998,13.067,365.774,12.464,366.863,12.45z"/>
	<path fill-rule="evenodd" clip-rule="evenodd" fill="#6B6B6B" d="M433.662,12.049c-0.025,0.592-0.484,1.149-1.164,1.593
		c-1.386,0.902-2.758,1.826-4.125,2.753c-1.104,0.749-2.113,0.645-2.933-0.326c-0.724-0.854-0.706-2.188,0.104-3.013
		c0.415-0.419,0.902-0.779,1.403-1.094c1.182-0.745,2.35-1.529,3.603-2.147C432.047,9.073,433.708,10.183,433.662,12.049z"/>
	<path fill-rule="evenodd" clip-rule="evenodd" fill="#EAEAEA" d="M326.945,16.918c-1.046-0.061-1.687-0.501-2.112-1.251
		c-0.408-0.724-0.287-1.844,0.29-2.505c0.247-0.285,0.548-0.539,0.866-0.743c1.357-0.868,2.696-1.769,4.1-2.551
		c1.149-0.64,2.353-0.242,2.969,0.821c0.619,1.063,0.275,2.185-0.874,2.942c-1.378,0.911-2.742,1.848-4.128,2.745
		C327.676,16.625,327.231,16.782,326.945,16.918z"/>
	<path fill-rule="evenodd" clip-rule="evenodd" fill="#EAEAEA" d="M361.743,14.167c-0.158-0.048-0.569-0.132-0.953-0.297
		c-1.432-0.625-2.854-1.28-4.282-1.912c-1.261-0.551-1.79-1.577-1.396-2.743c0.376-1.123,1.536-1.703,2.786-1.257
		c1.633,0.585,3.229,1.266,4.826,1.941c0.341,0.142,0.666,0.392,0.91,0.669c0.608,0.689,0.78,1.493,0.4,2.36
		C363.647,13.799,362.949,14.188,361.743,14.167z"/>
	<path fill-rule="evenodd" clip-rule="evenodd" fill="#6B6B6B" d="M462.071,14.165c-0.137-0.039-0.516-0.1-0.856-0.249
		c-1.511-0.661-3.015-1.339-4.519-2.021c-1.304-0.593-1.755-1.867-1.089-3.04C456.095,8,457.025,7.535,458,7.886
		c1.786,0.645,3.556,1.361,5.285,2.154c1.023,0.474,1.453,1.568,1.21,2.553C464.252,13.576,463.417,14.175,462.071,14.165z"/>
	<path fill-rule="evenodd" clip-rule="evenodd" fill="#6B6B6B" d="M452.105,47.356c-0.035,1.37-1.253,2.375-2.585,2.118
		c-1.497-0.293-2.993-0.592-4.49-0.898c-0.329-0.068-0.662-0.152-0.981-0.267c-1.139-0.403-1.704-1.371-1.475-2.49
		c0.2-0.958,1.238-1.839,2.263-1.678c1.97,0.31,3.925,0.713,5.861,1.18C451.654,45.552,452.127,46.386,452.105,47.356z"/>
	<path fill-rule="evenodd" clip-rule="evenodd" fill="#EAEAEA" d="M344.849,44.145c1.658,0.344,3.542,0.677,5.393,1.137
		c1.218,0.304,1.77,1.393,1.482,2.569c-0.261,1.054-1.496,1.919-2.643,1.606c-1.346-0.365-2.742-0.562-4.11-0.842
		c-0.415-0.084-0.834-0.167-1.235-0.304c-1.146-0.394-1.708-1.357-1.486-2.481C342.45,44.821,343.524,44.059,344.849,44.145z"/>
	<path fill-rule="evenodd" clip-rule="evenodd" fill="#6B6B6B" d="M475.381,66.243c-1.2,0.007-1.776-0.502-2.224-1.669
		c-0.498-1.296-1.117-2.542-1.687-3.81c-0.104-0.229-0.251-0.44-0.341-0.674c-0.368-0.988,0.043-2.184,0.902-2.649
		c0.906-0.494,2.146-0.318,2.769,0.501c1.354,1.78,2.224,3.796,2.61,5.994C477.644,65.262,476.72,66.239,475.381,66.243z"/>
	<path fill-rule="evenodd" clip-rule="evenodd" fill="#EAEAEA" d="M375.034,66.243c-1.096,0-1.851-0.451-2.119-1.45
		c-0.408-1.529-1.053-2.933-1.905-4.265c-0.565-0.881-0.487-1.787,0.146-2.604c0.591-0.763,1.437-0.888,2.296-0.634
		c0.415,0.122,0.852,0.423,1.109,0.773c1.268,1.723,2.116,3.659,2.507,5.765C377.33,65.24,376.435,66.25,375.034,66.243z"/>
	<path fill-rule="evenodd" clip-rule="evenodd" fill="#EAEAEA" d="M377.448,69.605c-0.272,2.08-0.824,4.114-1.812,6.005
		c-0.529,1.006-1.732,1.346-2.746,0.905c-1.063-0.462-1.658-1.636-1.156-2.742c0.709-1.558,1.174-3.155,1.45-4.838
		c0.175-1.046,1.274-1.747,2.267-1.633C376.567,67.425,377.455,68.435,377.448,69.605z"/>
	<path fill-rule="evenodd" clip-rule="evenodd" fill="#6B6B6B" d="M475.585,67.288c1.257,0.015,2.323,1.175,2.166,2.471
		c-0.251,1.984-0.802,3.896-1.697,5.687c-0.58,1.153-1.798,1.554-2.896,1.038c-1.042-0.483-1.598-1.668-1.078-2.771
		c0.709-1.518,1.146-3.075,1.414-4.719C473.654,67.983,474.621,67.285,475.585,67.288z"/>
	<path fill-rule="evenodd" clip-rule="evenodd" fill="#6B6B6B" d="M457.556,89.188c-1.06-0.004-1.94-0.666-2.163-1.619
		c-0.243-1.031,0.258-2.026,1.332-2.456c1.024-0.408,2.092-0.705,3.123-1.081c0.716-0.266,1.399-0.631,2.127-0.859
		c0.98-0.309,2.033,0.193,2.463,1.085c0.451,0.952,0.201,2.191-0.701,2.707c-1.812,1.034-3.753,1.772-5.798,2.22
		C457.817,89.21,457.685,89.188,457.556,89.188z"/>
	<path fill-rule="evenodd" clip-rule="evenodd" fill="#EAEAEA" d="M357.632,89.195c-1.461,0.007-2.381-0.694-2.578-1.693
		c-0.193-1.003,0.272-1.959,1.293-2.367c1.729-0.694,3.484-1.332,5.246-1.944c0.988-0.34,2.037,0.133,2.492,1.014
		c0.458,0.888,0.293,2.155-0.523,2.653C361.636,88.042,359.516,88.776,357.632,89.195z"/>
	<path fill-rule="evenodd" clip-rule="evenodd" fill="#EAEAEA" d="M325.227,18.834c-0.071,0.195-0.15,0.625-0.369,0.967
		c-0.855,1.323-1.586,2.688-2.052,4.208c-0.308,0.997-1.231,1.584-2.112,1.547c-0.909-0.042-1.812-0.747-2.016-1.665
		c-0.079-0.354-0.054-0.759,0.032-1.117c0.458-1.966,1.41-3.717,2.542-5.36c0.638-0.92,1.665-1.225,2.571-0.892
		C324.632,16.818,325.227,17.704,325.227,18.834z"/>
	<path fill-rule="evenodd" clip-rule="evenodd" fill="#6B6B6B" d="M425.544,18.9c-0.079,0.191-0.172,0.614-0.394,0.956
		c-0.831,1.287-1.54,2.616-2.002,4.091c-0.404,1.28-1.579,1.858-2.686,1.479c-1.238-0.426-1.744-1.459-1.386-2.84
		c0.479-1.873,1.394-3.543,2.464-5.125c0.63-0.94,1.618-1.262,2.549-0.956C424.953,16.79,425.572,17.713,425.544,18.9z"/>
	<path fill-rule="evenodd" clip-rule="evenodd" fill="#6B6B6B" d="M473.261,79.306c-0.107,0.215-0.243,0.802-0.608,1.149
		c-1.415,1.339-2.865,2.653-4.376,3.878c-0.896,0.723-1.983,0.522-2.735-0.305c-0.709-0.777-0.73-1.944-0.051-2.797
		c0.137-0.164,0.294-0.308,0.448-0.451c1.221-1.117,2.449-2.22,3.663-3.344c0.694-0.645,1.475-0.795,2.349-0.451
		C472.784,77.314,473.268,78.066,473.261,79.306z"/>
	<path fill-rule="evenodd" clip-rule="evenodd" fill="#EAEAEA" d="M373.072,79.026c-0.24,0.479-0.372,1.066-0.737,1.414
		c-1.411,1.343-2.857,2.657-4.369,3.885c-0.898,0.728-1.983,0.537-2.742-0.286c-0.713-0.773-0.749-1.944-0.064-2.793
		c0.186-0.229,0.422-0.415,0.645-0.616c1.124-1.027,2.263-2.041,3.369-3.094c0.885-0.838,1.94-0.98,2.883-0.314
		C372.649,77.647,372.958,78.224,373.072,79.026z"/>
	<path fill-rule="evenodd" clip-rule="evenodd" fill="#EAEAEA" d="M333.204,85.128c0.036,1.41-1.382,2.61-2.735,2.059
		c-1.844-0.748-3.635-1.65-5.375-2.617c-1.021-0.566-1.231-1.819-0.694-2.797c0.576-1.057,1.715-1.457,2.832-0.92
		c1.647,0.787,3.27,1.622,4.898,2.449C332.839,83.667,333.15,84.29,333.204,85.128z"/>
	<path fill-rule="evenodd" clip-rule="evenodd" fill="#6B6B6B" d="M424.467,82.718c0.046-1.472,1.528-2.535,2.867-1.938
		c1.783,0.795,3.527,1.687,5.246,2.614c0.898,0.479,1.178,1.618,0.781,2.571c-0.412,0.995-1.508,1.665-2.475,1.253
		c-1.905-0.823-3.76-1.769-5.594-2.735C424.663,84.146,424.441,83.452,424.467,82.718z"/>
	<path fill-rule="evenodd" clip-rule="evenodd" fill="#EAEAEA" d="M320.214,26.458c0.98,0.021,1.944,0.747,2.076,1.749
		c0.223,1.66,0.62,3.244,1.396,4.735c0.427,0.813,0.187,1.581-0.394,2.233c-0.576,0.648-1.547,0.917-2.327,0.503
		c-0.53-0.283-1.082-0.729-1.364-1.246c-0.945-1.738-1.383-3.65-1.522-5.616C317.986,27.51,319.003,26.434,320.214,26.458z"/>
	<path fill-rule="evenodd" clip-rule="evenodd" fill="#6B6B6B" d="M465.376,50.343c0.193,0.071,0.666,0.163,1.046,0.404
		c1.425,0.92,2.821,1.887,4.218,2.849c0.211,0.144,0.394,0.327,0.559,0.522c0.666,0.803,0.684,1.974,0.05,2.693
		c-0.698,0.806-1.891,1.027-2.774,0.465c-1.536-0.988-3.069-1.983-4.573-3.015c-0.852-0.584-1.139-1.551-0.83-2.477
		C463.356,50.905,464.158,50.337,465.376,50.343z"/>
	<path fill-rule="evenodd" clip-rule="evenodd" fill="#EAEAEA" d="M365.052,50.346c0.186,0.064,0.623,0.138,0.967,0.356
		c1.461,0.949,2.893,1.933,4.329,2.918c0.204,0.141,0.39,0.331,0.548,0.527c0.655,0.812,0.651,1.986,0.007,2.695
		c-0.727,0.791-1.897,0.984-2.786,0.411c-1.504-0.967-2.993-1.94-4.472-2.939c-0.913-0.618-1.229-1.607-0.892-2.567
		C363.061,50.875,363.87,50.325,365.052,50.346z"/>
	<path fill-rule="evenodd" clip-rule="evenodd" fill="#6B6B6B" d="M418.39,28.695c0.004-1.187,0.888-2.167,2.013-2.234
		c1.06-0.062,2.084,0.734,2.234,1.866c0.207,1.572,0.591,3.072,1.321,4.496c0.469,0.911,0.269,1.79-0.419,2.444
		c-0.695,0.653-1.758,0.798-2.596,0.269c-0.384-0.242-0.767-0.585-0.971-0.978C419.017,32.727,418.547,30.749,418.39,28.695z"/>
	<path fill-rule="evenodd" clip-rule="evenodd" fill="#6B6B6B" d="M541.538,86.22c0-0.72-0.05-1.45,0.015-2.166
		c0.114-1.354,0.959-2.191,2.17-2.224c1.268-0.036,2.266,0.812,2.345,2.173c0.09,1.525,0.09,3.065,0,4.584
		c-0.082,1.389-1.034,2.177-2.359,2.141c-1.243-0.035-2.056-0.838-2.163-2.213c-0.057-0.759-0.011-1.532-0.011-2.295H541.538z"/>
	<path fill-rule="evenodd" clip-rule="evenodd" fill="#6B6B6B" d="M455.239,46.411c0.097,0.021,0.261,0.046,0.422,0.098
		c1.766,0.589,3.545,1.135,5.274,1.809c0.494,0.193,0.981,0.694,1.232,1.18c0.357,0.698,0.304,1.493-0.255,2.143
		c-0.604,0.705-1.396,1.01-2.28,0.735c-1.776-0.557-3.538-1.15-5.282-1.799c-1.034-0.383-1.504-1.398-1.285-2.478
		C453.266,47.118,454.168,46.393,455.239,46.411z"/>
	<path fill-rule="evenodd" clip-rule="evenodd" fill="#EAEAEA" d="M359.759,52.451c-0.118-0.021-0.376-0.041-0.612-0.119
		c-1.644-0.552-3.283-1.1-4.916-1.68c-1.16-0.412-1.69-1.318-1.504-2.467c0.193-1.156,1.274-2.028,2.399-1.706
		c1.944,0.557,3.867,1.217,5.758,1.953c0.959,0.376,1.332,1.458,1.081,2.462C361.743,51.787,360.873,52.442,359.759,52.451z"/>
	<path fill-rule="evenodd" clip-rule="evenodd" fill="#6B6B6B" d="M434.41,41.124c0.394,0.081,0.694,0.111,0.974,0.202
		c1.525,0.5,3.051,1.014,4.576,1.524c0.724,0.24,1.317,0.659,1.547,1.395c0.258,0.811,0.144,1.601-0.473,2.252
		c-0.576,0.61-1.296,0.838-2.084,0.58c-1.776-0.575-3.538-1.182-5.285-1.819c-0.823-0.299-1.292-0.947-1.371-1.832
		c-0.075-0.85,0.318-1.489,1.017-1.912C433.658,41.303,434.088,41.233,434.41,41.124z"/>
	<path fill-rule="evenodd" clip-rule="evenodd" fill="#EAEAEA" d="M341.297,44.957c0,1.47-1.231,2.53-2.636,2.12
		c-1.786-0.523-3.552-1.141-5.285-1.815c-1.203-0.467-1.683-1.603-1.303-2.677c0.372-1.04,1.539-1.676,2.703-1.33
		c1.744,0.519,3.47,1.112,5.174,1.738C340.817,43.31,341.301,43.994,341.297,44.957z"/>
	<path fill-rule="evenodd" clip-rule="evenodd" fill="#EAEAEA" d="M323.858,80.114c-0.043,1.519-1.812,2.629-3.144,1.802
		c-1.683-1.05-3.251-2.296-4.77-3.566c-0.823-0.685-0.777-1.966-0.122-2.775c0.612-0.759,1.705-0.96,2.646-0.473
		c0.297,0.157,0.569,0.369,0.842,0.565c1.139,0.81,2.27,1.622,3.405,2.438C323.469,78.646,323.888,79.384,323.858,80.114z"/>
	<path fill-rule="evenodd" clip-rule="evenodd" fill="#6B6B6B" d="M424.184,79.907c0.047,1.668-1.776,2.864-3.158,1.998
		c-1.684-1.046-3.244-2.299-4.766-3.57c-0.785-0.651-0.764-1.865-0.176-2.668c0.58-0.802,1.658-1.066,2.613-0.615
		c0.266,0.121,0.509,0.301,0.749,0.473c1.206,0.859,2.402,1.736,3.612,2.585C423.725,78.582,424.102,79.198,424.184,79.907z"/>
	<path fill-rule="evenodd" clip-rule="evenodd" fill="#EAEAEA" d="M266.77,51.261c-0.553,0-1.108,0.051-1.652-0.011
		c-1.246-0.142-2.041-0.999-2.088-2.173c-0.046-1.151,0.825-2.308,2.007-2.424c1.135-0.113,2.297-0.107,3.434-0.007
		c1.108,0.099,1.932,1.201,1.928,2.349c-0.005,1.225-0.757,2.114-1.977,2.257c-0.544,0.064-1.101,0.011-1.652,0.011
		C266.77,51.261,266.77,51.261,266.77,51.261z"/>
	<path fill-rule="evenodd" clip-rule="evenodd" fill="#6B6B6B" d="M572.049,13.135c-1.664-0.041-2.843-1.719-2.18-3.233
		c0.293-0.686,0.773-1.332,1.292-1.873c0.849-0.883,2.195-0.897,3.141-0.156c0.981,0.768,1.182,1.937,0.497,3.072
		c-0.282,0.473-0.604,0.929-0.963,1.346C573.35,12.863,572.672,13.149,572.049,13.135z"/>
	<path fill-rule="evenodd" clip-rule="evenodd" fill="#6B6B6B" d="M517.88,10.81c-0.021,0.983-0.77,1.934-1.772,2.245
		c-0.852,0.265-1.977-0.125-2.581-0.961c-0.348-0.476-0.648-0.992-0.906-1.523c-0.408-0.838-0.348-1.665,0.315-2.353
		c0.688-0.711,1.507-1.078,2.524-0.732C516.552,7.855,517.905,9.703,517.88,10.81z"/>
	<path fill-rule="evenodd" clip-rule="evenodd" fill="#EAEAEA" d="M181.013,90.746c-0.854,0.064-1.692-0.147-2.306-0.913
		c-0.505-0.631-0.75-1.325-0.426-2.127c0.34-0.846,0.924-1.411,1.853-1.547c0.333-0.043,0.677-0.036,1.015-0.029
		c1.574,0.036,2.567,0.981,2.505,2.425C183.611,89.567,182.83,90.95,181.013,90.746z"/>
</g>
</svg>
