<?xml version="1.0" encoding="utf-8"?>
<!-- Generator: Adobe Illustrator 16.0.0, SVG Export Plug-In . SVG Version: 6.00 Build 0)  -->
<!DOCTYPE svg PUBLIC "-//W3C//DTD SVG 1.1//EN" "http://www.w3.org/Graphics/SVG/1.1/DTD/svg11.dtd">
<svg version="1.1" id="Layer_1" xmlns="http://www.w3.org/2000/svg" xmlns:xlink="http://www.w3.org/1999/xlink" x="0px" y="0px"
	 width="400px" height="400px" viewBox="0 0 400 400" enable-background="new 0 0 400 400" xml:space="preserve">
<g>
	<path fill-rule="evenodd" clip-rule="evenodd" fill="#A5A5A5" stroke="#A5A5A5" stroke-width="6" stroke-miterlimit="10" d="
		M256.695,193.656c-3.595-3.87-7.027-7.913-10.815-11.59c-12.558-12.197-25.241-24.273-37.884-36.387
		c-17.64-16.909-35.283-33.81-52.917-50.72c-6.369-6.106-12.804-12.15-19.054-18.38c-8.136-8.105-6.732-22.894,2.582-28.65
		c6.956-4.303,16.558-3.267,22.588,2.56c14.106,13.628,28.156,27.321,42.252,40.965c23.798,23.038,47.613,46.055,71.42,69.088
		c6.633,6.418,13.287,12.82,19.856,19.307c6.396,6.322,7.272,16.87,1.654,23.806c-3.405,4.201-7.489,7.852-11.226,11.783
		c-17.679,18.59-35.344,37.197-53.013,55.791c-13.139,13.822-26.284,27.641-39.419,41.465c-8.551,9.006-17.133,17.979-25.623,27.041
		c-6.465,6.906-17.608,7.48-24.586,1.131c-7.352-6.686-8.007-18.148-1.227-25.385c10.997-11.74,22.141-23.338,33.212-35.004
		c16.07-16.932,32.131-33.875,48.206-50.805c11.262-11.861,22.542-23.707,33.809-35.564c0.271-0.285,0.519-0.599,0.775-0.902
		C257.087,193.355,256.888,193.506,256.695,193.656z"/>
</g>
</svg>
