<?xml version="1.0" encoding="utf-8"?>
<!-- Generator: Adobe Illustrator 16.0.0, SVG Export Plug-In . SVG Version: 6.00 Build 0)  -->
<!DOCTYPE svg PUBLIC "-//W3C//DTD SVG 1.1//EN" "http://www.w3.org/Graphics/SVG/1.1/DTD/svg11.dtd">
<svg version="1.1" id="Layer_1" xmlns="http://www.w3.org/2000/svg" xmlns:xlink="http://www.w3.org/1999/xlink" x="0px" y="0px"
	 width="400px" height="400px" viewBox="0 0 400 400" enable-background="new 0 0 400 400" xml:space="preserve">
<g>
	<path fill="#A5A5A5" stroke="#A5A5A5" stroke-width="6" stroke-miterlimit="10" d="M189.915,20.087c5.679,0,11.359,0,17.041,0
		c0.205,0.081,0.408,0.219,0.619,0.235c3.217,0.251,6.461,0.316,9.65,0.762c6.562,0.917,13.141,1.822,19.635,3.114
		c14.648,2.914,28.605,7.928,41.982,14.542c22.969,11.356,42.668,26.88,59.148,46.5c9.9,11.789,18.156,24.63,24.783,38.524
		c6.852,14.372,11.746,29.375,14.609,45.045c1.561,8.55,2.619,17.147,2.855,25.839c0.008,0.295,0.154,0.586,0.236,0.877
		c0,4.4,0,8.8,0,13.201c-0.082,0.246-0.219,0.488-0.236,0.738c-0.252,3.539-0.322,7.098-0.762,10.613
		c-0.74,5.947-1.521,11.902-2.623,17.793c-2.846,15.236-7.85,29.781-14.637,43.705c-10.918,22.393-25.791,41.762-44.613,58.092
		c-16.211,14.064-34.336,24.934-54.387,32.58c-12.059,4.6-24.461,7.887-37.236,9.781c-6.705,0.994-13.426,1.746-20.207,1.9
		c-0.248,0.006-0.492,0.154-0.738,0.236c-4.4,0-8.801,0-13.201,0c-0.252-0.082-0.5-0.217-0.757-0.238
		c-5.041-0.408-10.115-0.566-15.115-1.262c-6.595-0.918-13.191-1.99-19.68-3.469c-14.347-3.268-28.031-8.422-41.121-15.164
		c-13.119-6.758-25.241-14.979-36.354-24.676c-9.847-8.594-18.693-18.121-26.497-28.615c-12.154-16.342-21.337-34.207-27.496-53.619
		c-2.969-9.357-5.281-18.877-6.496-28.627c-0.704-5.646-1.126-11.328-1.687-16.99c-0.029-0.293-0.157-0.574-0.239-0.859
		c0-5.682,0-11.361,0-17.04c0.161-1.608,0.293-3.221,0.49-4.824c0.785-6.39,1.394-12.808,2.427-19.157
		c2.133-13.1,5.985-25.73,11.156-37.944c12.612-29.783,31.751-54.545,57.404-74.247c18.628-14.308,39.299-24.553,61.924-30.839
		c8.423-2.34,16.966-4.141,25.669-5.065c4.513-0.479,9.041-0.8,13.562-1.205C189.327,20.298,189.619,20.168,189.915,20.087z
		 M30.46,202.017c0,92.773,74.487,166.363,164.305,167.936c47.068,0.824,87.861-15.299,121.412-48.291
		c32.242-31.701,49.088-70.635,50.035-115.871c0.977-46.688-14.951-87.277-47.525-120.734
		c-32.533-33.415-72.588-50.442-119.27-50.842C105.81,33.413,30.362,109.508,30.46,202.017z"/>
	<path fill-rule="evenodd" clip-rule="evenodd" fill="#A5A5A5" stroke="#A5A5A5" stroke-width="6" stroke-miterlimit="10" d="
		M201.664,234.884c2.287-2.109,4.674-4.123,6.848-6.346c7.209-7.373,14.346-14.818,21.506-22.24
		c9.994-10.355,19.982-20.714,29.977-31.066c3.609-3.739,7.182-7.517,10.863-11.186c4.789-4.775,13.496-3.92,16.869,1.577
		c2.52,4.105,1.891,9.759-1.553,13.298c-8.055,8.282-16.146,16.529-24.211,24.805c-13.615,13.971-27.219,27.951-40.832,41.926
		c-3.793,3.895-7.576,7.801-11.41,11.656c-3.736,3.756-9.949,4.25-14.023,0.928c-2.468-2.014-4.61-4.426-6.918-6.635
		c-10.914-10.449-21.836-20.889-32.753-31.332c-8.116-7.766-16.227-15.535-24.344-23.299c-5.286-5.055-10.555-10.126-15.876-15.145
		c-4.053-3.821-4.369-10.386-0.616-14.482c3.952-4.316,10.704-4.681,14.953-0.673c6.892,6.499,13.701,13.086,20.55,19.63
		c9.94,9.5,19.888,18.992,29.827,28.492c6.963,6.656,13.918,13.322,20.878,19.982c0.168,0.16,0.352,0.307,0.529,0.459
		C201.84,235.116,201.752,234.999,201.664,234.884z"/>
</g>
</svg>
